<svg width="80" height="80" viewBox="0 0 80 80" fill="none" xmlns="http://www.w3.org/2000/svg">
<rect width="80" height="80" rx="24" fill="#043A3A"/>
<g clip-path="url(#clip0_1_1245)">
<path d="M48.85 53.2001C48.85 53.0501 48.85 53.0501 48.7 52.9001C48.55 52.6001 48.55 52.4501 48.4 52.1501V52.0001C47.65 50.2001 46.15 48.7001 44.2 48.1001L37.75 46.0001V43.0001C38.5 42.4001 39.25 41.8001 39.85 41.0501H40C42.55 41.0501 44.5 38.9501 44.5 36.5501V33.4001C44.5 32.2001 43.45 31.1501 42.25 31.1501L43 29.0501C43.3 27.8501 43 26.8001 42.25 25.9001C41.65 25.1501 40.9 24.7001 40 24.5501C39.85 23.5001 39.25 22.4501 38.5 21.7001C37.45 20.8001 36.25 20.5001 34.9 20.6501L25.9 22.1501C24.55 22.3001 23.5 22.9001 22.9 23.9501C22.15 24.8501 21.85 26.0501 22.15 27.4001L23.05 31.0001H22.75C21.55 31.0001 20.5 32.0501 20.5 33.2501V34.7501C20.5 35.9501 21.55 37.0001 22.75 37.0001H23.65C24.1 39.4001 25.45 41.5001 27.4 42.8501V45.8501L20.95 47.9501C19 48.5501 17.5 50.0501 16.75 51.8501C16.6 52.1501 16.6 52.3001 16.45 52.6001C16.45 52.7501 16.45 52.7501 16.3 52.9001C16.3 53.0501 16.15 53.3501 16.15 53.5001C16 54.1001 16 54.4001 16 54.7001V60.2501C16 60.7001 16.3 61.0001 16.75 61.0001H48.1C48.55 61.0001 48.85 60.7001 48.85 60.2501V54.7001C48.85 54.4001 48.85 54.1001 48.7 53.6501C48.85 53.5001 48.85 53.3501 48.85 53.2001ZM40.6 39.2501C40.9 38.5001 41.2 37.7501 41.35 37.0001H42.25C42.55 37.0001 42.7 37.0001 43 36.8501C42.7 38.0501 41.8 38.9501 40.6 39.2501ZM42.25 32.5001C42.7 32.5001 43 32.8001 43 33.2501V34.7501C43 35.2001 42.7 35.5001 42.25 35.5001H41.5V33.2501V33.1001L41.65 32.5001H42.25ZM24.1 24.7001C24.55 24.1001 25.3 23.6501 26.05 23.5001L35.05 22.0001C35.95 21.8501 36.85 22.1501 37.45 22.6001C38.05 23.0501 38.5 24.1001 38.5 25.0001C38.5 25.4501 38.8 25.7501 39.25 25.7501C40 25.7501 40.6 26.0501 41.05 26.6501C41.5 27.2501 41.65 27.8501 41.5 28.4501L40.3 32.0501C40 32.0501 39.7 31.7501 39.7 31.4501V29.0501C39.7 28.4501 39.4 28.0001 38.95 27.8501C38.5 27.5501 37.9 27.7001 37.45 28.0001C35.05 29.8001 31.9 30.5501 28.9 29.9501L27.4 29.6501C26.35 29.6501 25.3 30.5501 25.3 31.7501C25.3 32.0501 25.15 32.2001 24.85 32.3501L23.5 27.1001C23.35 26.2001 23.65 25.4501 24.1 24.7001ZM23.5 35.5001H22.75C22.3 35.5001 22 35.2001 22 34.7501V33.2501C22 32.8001 22.3 32.5001 22.75 32.5001H23.35L23.5 33.1001V35.5001ZM25 35.5001V33.7001C26.05 33.5501 26.8 32.8001 26.8 31.7501C26.8 31.4501 27.1 31.1501 27.25 31.1501L28.6 31.4501C31.9 32.0501 35.35 31.3001 38.2 29.3501V31.7501C38.2 32.8001 38.95 33.7001 40 33.7001V35.5001C40 37.0001 39.55 38.2001 38.95 39.4001H34.75C34.3 39.4001 34 39.7001 34 40.1501C34 40.6001 34.3 40.9001 34.75 40.9001H37.75C36.4 42.1001 34.45 43.0001 32.5 43.0001C28.3 43.0001 25 39.5501 25 35.5001ZM32.5 44.5001C33.85 44.5001 35.05 44.2001 36.1 43.7501V45.8501C36.1 47.3501 33.7 48.8501 32.5 49.4501C31.3 48.8501 28.9 47.3501 28.9 45.8501V43.7501C29.95 44.2001 31.15 44.5001 32.5 44.5001ZM21.25 49.4501L27.7 47.3501C28.75 49.3001 31.75 50.6501 32.05 50.8001H32.65C33.1 50.6501 35.95 49.3001 37 47.3501L43.45 49.4501C44.35 49.7501 45.25 50.3501 45.85 50.9501C42.55 52.0001 40 55.3001 40 59.0501V59.5001H25V59.0501C25 55.3001 22.45 52.0001 19 51.1001C19.6 50.3501 20.35 49.7501 21.25 49.4501ZM17.5 59.5001V54.7001C17.5 54.2501 17.5 53.9501 17.65 53.5001V53.3501C17.8 52.9001 17.8 52.6001 18.1 52.3001C21.25 52.9001 23.5 55.7501 23.5 59.0501V59.5001H17.5ZM47.5 59.5001H41.5V59.0501C41.5 55.7501 43.9 53.0501 47.05 52.3001C47.2 52.6001 47.35 53.0501 47.5 53.3501V53.5001C47.65 53.9501 47.65 54.2501 47.65 54.7001V59.5001H47.5Z" fill="white"/>
<path d="M64 31C64 28.9 63.4 26.95 62.5 25.15V25L62.35 24.85C61.3 23.05 59.65 21.4 57.85 20.5C56.2 19.6 54.25 19 52.15 19C50.05 19 48.1 19.6 46.3 20.5H46.15H46C44.8 21.25 43.75 22.15 42.85 23.2C42.55 23.5 42.7 23.95 43 24.25C43.3 24.55 43.75 24.55 44.05 24.1C44.65 23.35 45.4 22.6 46.3 22.15L46.6 22.75C46.75 23.05 47.05 23.2 47.2 23.2C47.35 23.2 47.5 23.2 47.5 23.05C47.8 22.9 47.95 22.45 47.8 22L47.5 21.55C48.7 20.95 49.9 20.65 51.25 20.5V22.75C51.25 23.2 51.55 23.5 52 23.5C52.45 23.5 52.75 23.2 52.75 22.75V20.5C54.1 20.65 55.3 20.95 56.35 21.4L56.05 22C55.9 22.3 56.05 22.75 56.35 23.05C56.5 23.05 56.65 23.2 56.65 23.2C56.95 23.2 57.1 23.05 57.25 22.75L57.55 22.15C58.75 22.9 59.8 23.95 60.55 25.15L59.95 25.45C59.65 25.6 59.5 26.05 59.65 26.5C59.8 26.8 60.1 26.95 60.25 26.95C60.4 26.95 60.55 26.95 60.55 26.8L61.45 26.5C62.05 27.7 62.35 28.9 62.5 30.25H60.25C59.8 30.1 59.5 30.55 59.5 31C59.5 31.45 59.8 31.75 60.25 31.75H62.5C62.35 33.1 62.05 34.3 61.6 35.35L61 35.05C60.7 34.9 60.25 35.05 59.95 35.35C59.8 35.65 59.95 36.1 60.25 36.4L60.85 36.7C60.1 37.9 59.05 38.95 57.85 39.7L57.55 39.1C57.4 38.8 56.95 38.65 56.5 38.8C56.2 38.95 56.05 39.4 56.2 39.85L56.5 40.45C55.3 41.05 54.1 41.35 52.75 41.5V39.25C52.75 38.8 52.45 38.5 52 38.5C51.55 38.5 51.25 38.8 51.25 39.25V41.5C50.05 41.35 48.85 41.05 47.65 40.6L47.95 40C48.1 39.7 47.95 39.25 47.65 38.95C47.35 38.8 46.9 38.95 46.6 39.25L46.3 39.85C46.15 39.7 46 39.7 46 39.7C45.7 39.4 45.25 39.55 44.95 39.85C44.65 40.15 44.8 40.6 45.1 40.9C45.4 41.05 45.7 41.2 46 41.5L46.15 41.65H46.3C47.95 42.55 49.9 43 51.85 43C53.95 43 55.9 42.4 57.7 41.5L57.85 41.35C59.65 40.3 61.3 38.65 62.35 36.85C63.55 35.05 64 33.1 64 31Z" fill="white"/>
<path d="M54.7 26.5C54.25 26.5 53.95 26.65 53.8 27.1L52.6 33.1C52.6 33.25 52.6 33.55 52.75 33.7C52.9 33.85 53.35 34 53.5 34H55.75V34.75C55.75 35.2 56.05 35.5 56.5 35.5C56.95 35.5 57.25 35.2 57.25 34.75V34H58C58.45 34 58.75 33.7 58.75 33.25C58.75 32.8 58.45 32.5 58 32.5H57.25V30.25C57.25 29.8 56.95 29.5 56.5 29.5C56.05 29.5 55.75 29.8 55.75 30.25V32.5H54.4L55.3 27.4C55.45 26.95 55.15 26.65 54.7 26.5Z" fill="white"/>
<path d="M51.25 29.5C51.25 27.85 49.9 26.5 48.25 26.5C46.6 26.5 45.25 27.85 45.25 29.5C45.25 29.95 45.55 30.25 46 30.25C46.45 30.25 46.75 29.95 46.75 29.5C46.75 28.6 47.35 28 48.25 28C49.15 28 49.75 28.6 49.75 29.5C49.75 29.95 49.6 30.25 49.3 30.55L45.4 34.3C45.25 34.45 45.1 34.9 45.25 35.05C45.4 35.35 45.7 35.5 46 35.5H50.5C50.95 35.5 51.25 35.2 51.25 34.75C51.25 34.3 50.95 34 50.5 34H47.95L50.5 31.6C50.95 31 51.25 30.25 51.25 29.5Z" fill="white"/>
</g>
<defs>
<clipPath id="clip0_1_1245">
<rect width="48" height="48" fill="white" transform="translate(16 16)"/>
</clipPath>
</defs>
</svg>
