<svg width="80" height="80" viewBox="0 0 80 80" fill="none" xmlns="http://www.w3.org/2000/svg">
<rect width="80" height="80" rx="24" fill="#043A3A"/>
<path d="M40.075 42.0999C34.525 42.0999 30.325 34.9749 30.325 28.5999V28.5249V28.2249C30.325 27.8499 30.7 27.4749 31.075 27.5499C31.45 27.5499 31.75 27.9249 31.75 28.2999V28.5999C31.75 34.2249 35.35 40.7499 40 40.7499C41.05 40.7499 42.025 40.4499 43.075 39.7749C46.15 37.7499 48.325 33.0999 48.325 28.6749V28.1499C48.325 27.7749 48.625 27.3999 49 27.3999C49.375 27.3999 49.75 27.6999 49.75 28.0749V28.1499C49.75 28.3749 49.75 28.5999 49.75 28.5999C49.75 33.4749 47.275 38.6499 43.825 40.8999C42.7 41.6499 41.35 42.0999 40.075 42.0999Z" fill="white"/>
<path d="M47.125 29.65C46.3 29.65 45.4 29.425 44.35 28.975C43.975 28.9 41.725 28.3 40 28.225C38.275 28.225 36.025 28.825 35.65 28.975C33.775 29.8 32.2 29.875 31.15 29.2C29.725 28.3 29.65 26.5 29.65 26.2C29.575 25.75 29.2 21.25 31.6 18.475C32.725 17.2 34.225 16.525 36.175 16.45C38.725 16.375 41.275 16.375 43.825 16.45C45.7 16.525 47.275 17.2 48.4 18.475C50.8 21.175 50.425 25.675 50.425 26.2C50.425 26.5 50.35 28.3 48.925 29.2C48.4 29.5 47.8 29.65 47.125 29.65ZM40 17.8C38.725 17.8 37.45 17.8 36.25 17.875C34.75 17.95 33.55 18.4 32.725 19.45C30.7 21.775 31.075 26.05 31.075 26.125V26.2C31.075 26.2 31.075 27.55 31.9 28.075C32.575 28.525 33.625 28.375 35.05 27.7H35.125C35.2 27.7 37.825 26.95 39.925 26.875C41.95 26.875 44.575 27.625 44.725 27.7H44.8C46.225 28.375 47.35 28.45 48.025 28.075C48.85 27.55 48.85 26.2 48.85 26.2V26.125C48.85 26.05 49.225 21.85 47.2 19.45C46.3 18.475 45.175 17.95 43.675 17.875C42.55 17.8 41.275 17.8 40 17.8Z" fill="white"/>
<path d="M49.675 26.875C49.6 26.875 49.45 26.875 49.375 26.8C43.15 24.025 36.85 24.025 30.625 26.8C30.25 26.95 29.875 26.8 29.65 26.425C29.5 26.05 29.65 25.675 30.025 25.45C36.625 22.45 43.3 22.45 49.9 25.45C50.275 25.6 50.425 26.05 50.275 26.425C50.2 26.725 49.9 26.875 49.675 26.875Z" fill="white"/>
<path d="M28.525 54.4751C28.15 54.4751 27.775 54.1751 27.775 53.7251V43.5251C27.775 43.1501 28.075 42.7751 28.525 42.7751C28.975 42.7751 29.275 43.0751 29.275 43.5251V53.7251C29.275 54.1001 28.975 54.4751 28.525 54.4751ZM31.675 54.4001C31.3 54.4001 30.925 54.1001 30.925 53.6501V42.8501C30.925 42.4751 31.225 42.1001 31.675 42.1001C32.125 42.1001 32.425 42.4001 32.425 42.8501V53.7251C32.35 54.1001 32.05 54.4001 31.675 54.4001ZM48.325 54.4001C47.95 54.4001 47.575 54.1001 47.575 53.6501V42.8501C47.575 42.4751 47.875 42.1001 48.325 42.1001C48.7 42.1001 49.075 42.4001 49.075 42.8501V53.7251C49.075 54.1001 48.775 54.4001 48.325 54.4001ZM51.475 54.4751C51.1 54.4751 50.725 54.1751 50.725 53.7251V43.5251C50.725 43.1501 51.025 42.7751 51.475 42.7751C51.85 42.7751 52.225 43.0751 52.225 43.5251V53.7251C52.15 54.1001 51.85 54.4751 51.475 54.4751Z" fill="white"/>
<path d="M26.125 61.975C25.75 61.975 25.375 61.675 25.375 61.225V56.425C25.375 54.7 26.65 53.2 28.45 53.05C28.6 53.05 51.325 53.05 51.475 53.05C53.2 53.2 54.55 54.7 54.55 56.425V61.225C54.55 61.6 54.25 61.975 53.8 61.975C53.425 61.975 53.05 61.675 53.05 61.225V56.425C53.05 55.45 52.3 54.55 51.25 54.475C50.875 54.475 28.9 54.475 28.45 54.475C27.475 54.55 26.725 55.45 26.725 56.425V61.225C26.875 61.6 26.575 61.975 26.125 61.975Z" fill="white"/>
<path d="M30.1 59.425C29.05 59.425 28.225 58.6 28.225 57.55C28.225 56.5 29.05 55.675 30.1 55.675C31.15 55.675 31.975 56.5 31.975 57.55C31.975 58.6 31.15 59.425 30.1 59.425ZM30.1 57.1C29.875 57.1 29.65 57.325 29.65 57.55C29.65 57.775 29.875 58 30.1 58C30.325 58 30.55 57.775 30.55 57.55C30.55 57.325 30.325 57.1 30.1 57.1ZM49.9 59.425C48.85 59.425 48.025 58.6 48.025 57.55C48.025 56.5 48.85 55.675 49.9 55.675C50.95 55.675 51.775 56.5 51.775 57.55C51.775 58.6 50.95 59.425 49.9 59.425ZM49.9 57.1C49.675 57.1 49.45 57.325 49.45 57.55C49.45 57.775 49.675 58 49.9 58C50.125 58 50.35 57.775 50.35 57.55C50.35 57.325 50.125 57.1 49.9 57.1Z" fill="white"/>
<path d="M39.925 63.6251C35.275 63.6251 30.55 63.0251 25.975 61.9001C24.4 61.5251 22.825 61.0751 21.325 60.5501C21.1 60.4751 20.875 60.2501 20.875 60.0251C19.825 54.0251 19.375 47.4251 24.325 44.3501C24.925 43.9751 25.525 43.6751 26.275 43.4501C26.95 43.2251 27.625 43.0001 28.45 42.7751C29.575 42.4751 30.55 42.2501 31.6 42.1001C31.675 42.1001 31.825 42.0251 31.9 42.0251H32.05C33.55 41.6501 34.45 40.6751 34.9 39.1751C34.975 38.8001 35.425 38.5751 35.8 38.6501C36.175 38.7251 36.4 39.1751 36.325 39.5501C35.8 41.5751 34.45 42.8501 32.425 43.4501L32.2 43.5251C32.125 43.5251 31.975 43.5251 31.9 43.6001C30.85 43.7501 29.875 43.9751 28.825 44.2751C28.075 44.5001 27.4 44.6501 26.8 44.8751C26.2 45.1001 25.6 45.3251 25.15 45.6251C21.025 48.1751 21.325 53.7251 22.3 59.4251C23.65 59.8751 25.075 60.2501 26.425 60.6251C35.5 62.8751 44.65 62.8001 53.8 60.6251C55.225 60.2501 56.575 59.8751 57.925 59.5001C58.825 54.1001 59.2 48.2501 55.075 45.7001C54.625 45.4001 54.025 45.1751 53.425 44.9501C52.75 44.7251 52.075 44.5001 51.4 44.3501C50.425 44.0501 49.375 43.9001 48.4 43.6751C48.25 43.6751 48.175 43.6001 48.1 43.6001H47.95C45.925 43.0751 44.575 41.8001 44.05 39.8501C43.975 39.4751 44.125 39.1001 44.575 38.9501C44.95 38.8751 45.325 39.0251 45.475 39.4751C45.925 40.9751 46.825 41.8751 48.325 42.2501H48.4C48.55 42.2501 48.625 42.2501 48.775 42.3251C49.825 42.4751 50.875 42.7001 51.925 43.0001C52.675 43.1501 53.35 43.3751 54.1 43.6751C54.775 43.9001 55.45 44.2001 55.975 44.5751C60.925 47.6501 60.475 54.2501 59.425 60.2501C59.35 60.4751 59.2 60.7001 58.975 60.7751C57.475 61.3001 55.9 61.6751 54.325 62.1251C49.375 63.0251 44.65 63.6251 39.925 63.6251Z" fill="white"/>
<path d="M40 46.7501C36.85 46.7501 33.925 45.1751 32.575 42.7001C32.35 42.3251 32.5 41.9501 32.875 41.7251C33.25 41.5001 33.625 41.6501 33.85 42.0251C34.975 44.0501 37.375 45.3251 40 45.3251C42.625 45.3251 45.025 44.0501 46.15 42.0251C46.3 41.6501 46.75 41.5751 47.125 41.7251C47.5 41.8751 47.575 42.3251 47.425 42.7001C46.075 45.1751 43.15 46.7501 40 46.7501Z" fill="white"/>
</svg>
