<svg width="61" height="61" viewBox="0 0 61 61" fill="none" xmlns="http://www.w3.org/2000/svg">
<circle cx="30.5" cy="30.8198" r="30" fill="url(#paint0_linear_228_31)" fill-opacity="0.49"/>
<path d="M34.1585 23.3671C35.2231 23.3701 36.2431 23.7787 36.9958 24.5036C37.7486 25.2285 38.1729 26.2107 38.1761 27.2358V34.9725C38.1729 35.9976 37.7486 36.9798 36.9958 37.7047C36.2431 38.4296 35.2231 38.8382 34.1585 38.8412H26.1243C25.0598 38.8382 24.0397 38.4296 23.287 37.7047C22.5342 36.9798 22.1099 35.9976 22.1068 34.9725V27.2358C22.1099 26.2107 22.5342 25.2285 23.287 24.5036C24.0397 23.7787 25.0598 23.3701 26.1243 23.3671H34.1585ZM34.1585 21.8198H26.1243C23.0309 21.8198 20.5 24.257 20.5 27.2358V34.9725C20.5 37.9513 23.0309 40.3885 26.1243 40.3885H34.1585C37.252 40.3885 39.7828 37.9513 39.7828 34.9725V27.2358C39.7828 24.257 37.252 21.8198 34.1585 21.8198Z" fill="white"/>
<path d="M35.3638 27.2366C35.1254 27.2366 34.8924 27.1685 34.6942 27.041C34.496 26.9135 34.3416 26.7322 34.2504 26.5202C34.1591 26.3081 34.1353 26.0748 34.1818 25.8497C34.2283 25.6245 34.3431 25.4177 34.5116 25.2554C34.6802 25.0931 34.8949 24.9826 35.1287 24.9378C35.3625 24.893 35.6048 24.916 35.825 25.0039C36.0452 25.0917 36.2334 25.2405 36.3659 25.4313C36.4983 25.6222 36.569 25.8465 36.569 26.0761C36.5693 26.2286 36.5384 26.3796 36.4779 26.5206C36.4175 26.6615 36.3287 26.7896 36.2167 26.8974C36.1048 27.0053 35.9718 27.0907 35.8254 27.1489C35.679 27.2071 35.5222 27.2369 35.3638 27.2366ZM30.1415 28.01C30.7772 28.01 31.3986 28.1915 31.9271 28.5316C32.4556 28.8717 32.8676 29.355 33.1108 29.9206C33.3541 30.4861 33.4177 31.1084 33.2937 31.7087C33.1697 32.3091 32.8636 32.8605 32.4141 33.2934C31.9646 33.7262 31.392 34.021 30.7685 34.1404C30.1451 34.2598 29.4989 34.1985 28.9116 33.9643C28.3243 33.73 27.8224 33.3333 27.4692 32.8244C27.1161 32.3154 26.9276 31.7171 26.9276 31.1049C26.9285 30.2844 27.2674 29.4977 27.8699 28.9175C28.4724 28.3373 29.2894 28.0109 30.1415 28.01ZM30.1415 26.4628C29.1881 26.4628 28.256 26.735 27.4633 27.2451C26.6705 27.7552 26.0526 28.4802 25.6878 29.3285C25.3229 30.1767 25.2274 31.1101 25.4134 32.0106C25.5994 32.9111 26.0586 33.7382 26.7328 34.3874C27.4069 35.0367 28.2659 35.4788 29.201 35.6579C30.1362 35.837 31.1054 35.7451 31.9863 35.3937C32.8672 35.0424 33.6201 34.4474 34.1498 33.684C34.6795 32.9206 34.9622 32.0231 34.9622 31.1049C34.9622 29.8738 34.4543 28.693 33.5503 27.8224C32.6462 26.9519 31.42 26.4628 30.1415 26.4628Z" fill="white"/>
<defs>
<linearGradient id="paint0_linear_228_31" x1="30.5" y1="0.819824" x2="30.5" y2="60.8198" gradientUnits="userSpaceOnUse">
<stop stop-color="#3CB75C"/>
<stop offset="1" stop-color="#90C73A"/>
</linearGradient>
</defs>
</svg>
