<svg width="60" height="60" viewBox="0 0 60 60" fill="none" xmlns="http://www.w3.org/2000/svg">
<circle cx="30" cy="30" r="30" fill="#EFF6F1"/>
<path d="M33.6585 22.5472C34.7231 22.5503 35.7431 22.9589 36.4958 23.6838C37.2486 24.4086 37.6729 25.3909 37.6761 26.416V34.1527C37.6729 35.1778 37.2486 36.16 36.4958 36.8849C35.7431 37.6098 34.7231 38.0183 33.6585 38.0214H25.6243C24.5598 38.0183 23.5397 37.6098 22.787 36.8849C22.0342 36.16 21.6099 35.1778 21.6068 34.1527V26.416C21.6099 25.3909 22.0342 24.4086 22.787 23.6838C23.5397 22.9589 24.5598 22.5503 25.6243 22.5472H33.6585ZM33.6585 21H25.6243C22.5309 21 20 23.4371 20 26.416V34.1527C20 37.1315 22.5309 39.5686 25.6243 39.5686H33.6585C36.752 39.5686 39.2828 37.1315 39.2828 34.1527V26.416C39.2828 23.4371 36.752 21 33.6585 21Z" fill="url(#paint0_linear_140_1861)"/>
<path d="M34.8633 26.4163C34.6249 26.4163 34.3919 26.3482 34.1937 26.2207C33.9956 26.0932 33.8411 25.9119 33.7499 25.6999C33.6587 25.4878 33.6348 25.2545 33.6813 25.0293C33.7278 24.8042 33.8426 24.5974 34.0111 24.4351C34.1797 24.2728 34.3944 24.1623 34.6282 24.1175C34.862 24.0727 35.1043 24.0957 35.3245 24.1836C35.5447 24.2714 35.7329 24.4201 35.8654 24.611C35.9978 24.8018 36.0685 25.0262 36.0685 25.2558C36.0688 25.4083 36.0379 25.5593 35.9774 25.7003C35.917 25.8412 35.8282 25.9693 35.7163 26.0771C35.6043 26.1849 35.4713 26.2704 35.3249 26.3286C35.1785 26.3868 35.0217 26.4166 34.8633 26.4163ZM29.641 27.1897C30.2767 27.1897 30.8981 27.3712 31.4266 27.7113C31.9551 28.0514 32.3671 28.5347 32.6103 29.1003C32.8536 29.6658 32.9172 30.2881 32.7932 30.8884C32.6692 31.4888 32.3631 32.0402 31.9136 32.4731C31.4641 32.9059 30.8915 33.2007 30.268 33.3201C29.6446 33.4395 28.9984 33.3782 28.4111 33.144C27.8238 32.9097 27.3219 32.513 26.9687 32.0041C26.6156 31.4951 26.4271 30.8967 26.4271 30.2846C26.428 29.4641 26.7669 28.6774 27.3694 28.0972C27.972 27.5169 28.7889 27.1906 29.641 27.1897ZM29.641 25.6425C28.6876 25.6425 27.7555 25.9147 26.9628 26.4248C26.17 26.9349 25.5521 27.6599 25.1873 28.5081C24.8224 29.3564 24.7269 30.2898 24.9129 31.1903C25.099 32.0908 25.5581 32.9179 26.2323 33.5671C26.9065 34.2163 27.7654 34.6585 28.7005 34.8376C29.6357 35.0167 30.605 34.9248 31.4858 34.5734C32.3667 34.2221 33.1196 33.6271 33.6493 32.8637C34.179 32.1003 34.4617 31.2028 34.4617 30.2846C34.4617 29.0534 33.9538 27.8727 33.0498 27.0021C32.1457 26.1315 30.9196 25.6425 29.641 25.6425Z" fill="url(#paint1_linear_140_1861)"/>
<defs>
<linearGradient id="paint0_linear_140_1861" x1="29.6414" y1="21" x2="29.6414" y2="39.5686" gradientUnits="userSpaceOnUse">
<stop stop-color="#3CB75C"/>
<stop offset="1" stop-color="#90C73A"/>
</linearGradient>
<linearGradient id="paint1_linear_140_1861" x1="30.4444" y1="24.0952" x2="30.4444" y2="34.9268" gradientUnits="userSpaceOnUse">
<stop stop-color="#3CB75C"/>
<stop offset="1" stop-color="#90C73A"/>
</linearGradient>
</defs>
</svg>
