<svg width="61" height="61" viewBox="0 0 61 61" fill="none" xmlns="http://www.w3.org/2000/svg">
<circle cx="30.5" cy="30.8198" r="30" fill="url(#paint0_linear_228_44)" fill-opacity="0.49"/>
<path d="M30.2966 20.8198C24.8866 20.8198 20.5 25.2045 20.5 30.6121C20.5 34.6208 22.9142 38.0656 26.3649 39.5825C26.3386 38.9005 26.3605 38.0787 26.5354 37.3355C26.7235 36.5399 27.795 31.9979 27.795 31.9979C27.795 31.9979 27.4801 31.3727 27.4801 30.4503C27.4801 28.999 28.3198 27.9148 29.3695 27.9148C30.2617 27.9148 30.6903 28.5837 30.6903 29.3837C30.6903 30.2799 30.1173 31.6175 29.8243 32.8591C29.5794 33.8995 30.3447 34.7432 31.3725 34.7432C33.2269 34.7432 34.4777 32.3607 34.4777 29.5367C34.4777 27.3903 33.0301 25.7859 30.4016 25.7859C27.432 25.7859 25.5776 28.0023 25.5776 30.4766C25.5776 31.329 25.8313 31.9323 26.2249 32.3957C26.4042 32.6099 26.4305 32.6973 26.3649 32.9421C26.3168 33.1214 26.2118 33.5541 26.1637 33.729C26.0981 33.9782 25.8969 34.0656 25.6738 33.9738C24.3049 33.4143 23.6664 31.9192 23.6664 30.2318C23.6664 27.4515 26.015 24.116 30.6684 24.116C34.4077 24.116 36.87 26.822 36.87 29.7247C36.87 33.5673 34.7314 36.435 31.5824 36.435C30.5241 36.435 29.5313 35.8623 29.1901 35.2153C29.1901 35.2153 28.6216 37.471 28.4991 37.9082C28.2936 38.6645 27.8868 39.4164 27.5151 40.0065C28.4169 40.2725 29.3521 40.4079 30.2923 40.4087C35.7023 40.4087 40.0889 36.0241 40.0889 30.6165C40.0889 25.2089 35.7067 20.8198 30.2966 20.8198Z" fill="white"/>
<defs>
<linearGradient id="paint0_linear_228_44" x1="30.5" y1="0.819824" x2="30.5" y2="60.8198" gradientUnits="userSpaceOnUse">
<stop stop-color="#3CB75C"/>
<stop offset="1" stop-color="#90C73A"/>
</linearGradient>
</defs>
</svg>
