<svg width="61" height="61" viewBox="0 0 61 61" fill="none" xmlns="http://www.w3.org/2000/svg">
<circle cx="30.5" cy="30.8198" r="30" fill="url(#paint0_linear_228_40)" fill-opacity="0.49"/>
<path d="M41.1602 24.7782C40.3852 25.115 39.5652 25.3368 38.7261 25.4368C39.6079 24.9204 40.2711 24.1001 40.5912 23.1297C39.7575 23.6172 38.8469 23.9593 37.8984 24.1412C37.4991 23.7227 37.0187 23.3897 36.4866 23.1625C35.9546 22.9354 35.3818 22.8188 34.8033 22.8198C32.4609 22.8198 30.5654 24.6879 30.5654 26.9906C30.5637 27.3109 30.6004 27.6303 30.6747 27.9418C28.9951 27.8631 27.3504 27.4346 25.8458 26.6838C24.3413 25.933 23.01 24.8764 21.9372 23.5817C21.5608 24.2162 21.3618 24.9401 21.3608 25.6778C21.3608 27.124 22.1154 28.4024 23.2547 29.1513C22.5797 29.1353 21.9185 28.9566 21.3273 28.6305V28.6822C21.3273 30.7051 22.7907 32.3881 24.7276 32.7711C24.3634 32.8682 23.988 32.9174 23.6111 32.9175C23.3436 32.918 23.0767 32.892 22.8144 32.84C23.3528 34.4971 24.92 35.7023 26.7764 35.7367C25.2679 36.8993 23.4159 37.5276 21.5115 37.523C21.1734 37.5225 20.8357 37.5024 20.5 37.4627C22.4374 38.6998 24.6895 39.3542 26.9882 39.348C34.7943 39.348 39.0589 32.9907 39.0589 27.477C39.0589 27.2962 39.0541 27.1154 39.0455 26.939C39.8733 26.3502 40.5893 25.6185 41.1602 24.7782Z" fill="white"/>
<defs>
<linearGradient id="paint0_linear_228_40" x1="30.5" y1="0.819824" x2="30.5" y2="60.8198" gradientUnits="userSpaceOnUse">
<stop stop-color="#3CB75C"/>
<stop offset="1" stop-color="#90C73A"/>
</linearGradient>
</defs>
</svg>
